<svg width="200" height="150" viewBox="0 0 800 600" fill="none" xmlns="http://www.w3.org/2000/svg" data-reactroot="">
<path d="M708.3 400.751C708.5 401.051 708.3 401.351 708 401.351C703.8 400.951 684.8 398.851 690 391.351C695.2 383.851 705.9 397.551 708.3 400.751Z" stroke="#221b38" stroke-miterlimit="10" stroke-width="1"></path>
<path d="M708.2 401.25C708 401.15 707.8 401.25 707.8 401.55C708.3 404.35 710.7 416.95 715.4 413.05C720.2 409.05 710.5 402.65 708.2 401.25Z" stroke="#221b38" stroke-miterlimit="10" stroke-width="1"></path>
<path d="M39.2002 573.151C271.7 575.451 514.8 576.951 514.9 573.151C515 570.151 366.4 565.451 366 551.351C365.7 541.951 431.6 533.351 430.9 526.351C430 518.251 340.4 525.351 338 511.551C336.6 503.251 367.6 493.651 366.1 488.051C363.3 477.551 250.5 501.551 247.1 489.551C245.4 483.551 273.2 474.451 271.6 466.051C269.9 456.851 233.9 457.051 174.6 456.351C89.7002 455.351 51.7002 453.651 51.0002 459.451C50.2002 466.351 103.6 475.951 102.6 483.951C101.6 491.351 55.5002 489.351 55.1002 494.151C54.6002 500.951 147.5 511.351 147 519.151C146.7 523.951 111.4 524.551 111.3 528.851C111.2 533.951 161.2 535.551 161.9 542.651C162.3 548.451 129.8 557.951 39.2002 573.151Z" fill="none" stroke="#221b38" stroke-width="1"></path>
<path d="M583.3 172.25L586.5 196.75L597.4 207.15H607.8L630.3 199.35L617.6 168.85L613.4 160.45L604.8 162.05L583.3 172.25Z" fill="#EFD8C3" stroke="#221b38" stroke-width="1"></path>
<path d="M713.7 149.35C713.7 149.35 713.8 147.75 713.5 145.95C711.8 136.25 707 133.85 708 129.85C708.9 126.35 714.1 123.55 717.9 123.45C721.6 123.45 727.1 126.85 727.8 130.35C728.7 134.85 723.1 137.65 722.5 146.05C722.3 148.15 722 149.35 722 149.35H713.7Z" fill="none" stroke="#221b38" stroke-width="1"></path>
<path d="M718.9 153.45H716.7C716.2 153.45 715.9 153.05 715.9 152.45L715.4 148.95H720.1L719.7 152.45C719.7 152.95 719.4 153.45 718.9 153.45Z" fill="none" stroke="#221b38" stroke-width="1"></path>
<path d="M720.3 152.25H715.3C714.3 152.25 713.4 151.65 713.4 150.85L713.5 145.85L722.2 146.05L722.1 150.85C722.2 151.65 721.3 152.25 720.3 152.25Z" fill="none" stroke="#221b38" stroke-width="1"></path>
<path d="M661.3 148.25L645.6 177.05L676.6 163.45C676.7 163.45 666.7 161.45 661.3 148.25Z" fill="none" stroke="#221b38" stroke-width="1"></path>
<path d="M587.9 312.35C587.9 312.35 579.9 310.25 578.2 311.05C576.5 311.85 571.9 316.95 571.9 316.95L579.1 318.95L587.9 312.35Z" fill="none" stroke="#221b38" stroke-width="1"></path>
<path d="M509.3 315.65L504.6 299.95L556.2 287.25L573.7 233.85L590.1 245.05L571.4 300.05C571 301.45 569.9 302.55 568.4 302.95L509.3 315.65Z" fill="#E5C9AF" stroke="#221b38" stroke-width="1"></path>
<path d="M589 259.15L587.5 267.15C587.4 267.55 587 267.85 586.6 267.75L561.1 263.05C560.7 262.95 560.4 262.55 560.5 262.05L571.8 228.15C572 227.55 575.3 225.85 575.6 226.35L590.2 256.75C591.3 254.95 589 259.05 589 259.15Z" fill="none" stroke="#221b38" stroke-width="1"></path>
<path d="M583 315.05C583 315.05 570.6 311.55 570.1 318.15C569.8 322.05 582.2 317.25 582.2 317.25L583 315.05Z" fill="none" stroke="#221b38" stroke-width="1"></path>
<path d="M675.6 551.049L666.9 550.349L664.8 533.249L673.2 532.449L675.6 551.049Z" fill="#EFD8C3" stroke="#221b38" stroke-width="1"></path>
<path d="M666.5 546.551C666.5 546.551 668.2 549.951 671.2 549.851C674.2 549.751 674.9 546.051 674.9 546.051C674.9 546.051 677.9 550.251 678 553.151C678 554.151 677.9 555.951 677.9 556.651C677.8 557.951 674.8 557.751 673.6 557.751L633.7 558.251C632.4 558.251 631.5 557.051 631.8 555.851C632.1 554.551 632.8 553.151 634.3 552.951C637.1 552.551 666.5 546.551 666.5 546.551Z" fill="none" stroke="#221b38" stroke-width="1"></path>
<path d="M633.2 559.649L677.1 559.449C677.6 559.449 678 559.849 677.9 560.349L677.8 561.749C677.8 562.249 677.4 562.549 676.9 562.549L633.1 561.349C632.6 561.349 632.3 560.949 632.3 560.449C632.3 559.949 632.7 559.549 633.2 559.649Z" fill="none" stroke="#221b38" stroke-width="1"></path>
<path d="M662.801 547.95C663.001 548.15 662.801 548.45 662.601 548.45C660.001 548.35 651.301 547.85 651.901 545.65C652.601 543.15 659.001 544.15 662.801 547.95Z" stroke="#221b38" stroke-miterlimit="10" stroke-width="1"></path>
<path d="M663.6 547.151C663.4 547.651 662.8 547.751 662.5 547.351C660.9 545.251 657.2 540.051 659.3 539.851C661.8 539.651 665.3 542.751 663.6 547.151Z" stroke="#221b38" stroke-miterlimit="10" stroke-width="1"></path>
<path d="M629.394 523.169L621.032 523.971L622.57 539.997L630.931 539.195L629.394 523.169Z" fill="#E5C9AF" stroke="#221b38" stroke-width="1"></path>
<path d="M622.9 206.25L669.5 221.25L673.6 224.45C673.6 224.45 677.7 287.35 659.4 293.45C649.2 296.95 635.1 298.65 624.6 299.65C616.1 300.35 608 295.95 604.1 288.35L572.8 227.35L622.9 206.25Z" fill="none" stroke="#221b38" stroke-width="1"></path>
<path d="M620.4 299.75L662.1 293.55C662.1 293.55 688.1 317.85 688.5 332.35C688.9 346.95 668.6 430.35 668.6 430.35L680.7 538.55H658.5L644.1 426.85L643.5 348.75L628.3 431.25L635.1 528.35L615.3 529.45L605.1 416.45C605.1 416.45 601.3 338.75 605.1 329.55C608.9 320.45 620.4 299.75 620.4 299.75Z" fill="none" stroke="#221b38" stroke-width="1"></path>
<path d="M610.599 204.05C610.599 204.05 612.899 214.85 610.399 219.05C608.399 222.45 615.699 229.35 621.899 226.05C630.799 221.45 629.599 215.15 629.599 215.15L623.299 200.15L610.599 204.05Z" fill="#E6C9AF" stroke="#221b38" stroke-width="1"></path>
<path d="M598.4 326.05L594.7 314.55L647.7 292.15L651.5 247.05L674.2 247.85L664.9 299.75C662.7 305.95 598.4 326.05 598.4 326.05Z" fill="#EFD8C3" stroke="#221b38" stroke-width="1"></path>
<path d="M648.9 235.85L648.3 254.35L675.4 256.35C675.4 256.35 679.3 236.15 675.2 226.55C673.8 223.35 669.4 220.75 665.9 221.25L661 222.05C654.2 223.15 649.1 228.95 648.9 235.85Z" fill="none" stroke="#221b38" stroke-miterlimit="10" stroke-linecap="round" stroke-width="1"></path>
<path d="M622.201 536.551C622.201 536.551 624.101 539.851 627.101 539.551C630.101 539.251 630.501 535.551 630.501 535.551C630.501 535.551 633.801 539.551 634.101 542.451C634.201 543.351 634.201 545.251 634.201 545.951C634.201 547.251 631.201 547.251 630.001 547.351L592.501 547.951C591.201 548.051 590.201 546.851 590.401 545.651C590.601 544.351 591.201 542.851 592.701 542.551C595.501 541.951 622.201 536.551 622.201 536.551Z" fill="none" stroke="#221b38" stroke-width="1"></path>
<path d="M592.1 549.25L633.7 548.75C634.2 548.75 634.6 549.15 634.6 549.55V550.95C634.6 551.45 634.2 551.75 633.8 551.75L592.2 550.85C591.7 550.85 591.4 550.45 591.4 550.05C591.3 549.65 591.6 549.25 592.1 549.25Z" fill="none" stroke="#221b38" stroke-width="1"></path>
<path d="M619.7 536.95C619.9 537.25 619.7 537.65 619.4 537.65C616.5 537.45 607.3 536.75 608.2 534.65C609.1 532.25 616.3 532.95 619.7 536.95Z" stroke="#221b38" stroke-miterlimit="10" stroke-width="1"></path>
<path d="M620.8 536.65C620.8 537.15 620.2 537.35 619.8 537.05C617.7 535.45 612.7 531.45 614.7 530.65C617 529.85 621.2 531.85 620.8 536.65Z" stroke="#221b38" stroke-miterlimit="10" stroke-width="1"></path>
<path d="M505.9 300.55C505.9 300.55 493.8 299.15 490.6 299.75C487.4 300.35 482.4 305.75 482.4 305.75C482.4 305.75 482.4 320.15 486.8 322.05C491.2 323.95 509.4 315.75 509.4 315.75L505.9 300.55Z" fill="#E5C9AF" stroke="#221b38" stroke-width="1"></path>
<path d="M581.9 170.05L584.7 218.05L611.3 208.35C611.3 208.35 611 205.05 610.6 203.95C606.6 205.35 605.4 206.15 601.9 204.15C598.4 202.15 593.6 197.45 590.5 192.55C581.5 178.05 587.3 169.95 587.3 169.95H581.9V170.05Z" fill="none" stroke="#221b38" stroke-width="1"></path>
<path d="M593.5 183.85C593.5 183.85 593.3 194.25 594.9 194.25C596.4 194.25 598.9 193.75 598.9 193.75" stroke="#221b38" stroke-miterlimit="10" stroke-linecap="round" stroke-width="1"></path>
<path d="M598.1 198.65C598.1 198.65 600.2 200.65 602.2 198.05" stroke="#221b38" stroke-miterlimit="10" stroke-linecap="round" stroke-width="1"></path>
<path d="M608.1 175.55L577.8 179.85C577.8 179.85 576.8 147.55 596.4 144.35C610.9 141.95 617.9 145.75 617.9 145.75C617.9 145.75 629.2 137.65 638 153.75C646.9 169.95 639.3 198.45 648.9 204.25L625.5 207.35C618.3 208.35 611.7 203.25 610.7 196.05L608.1 175.55Z" fill="none" stroke="#221b38" stroke-width="1"></path>
<path d="M663.8 313.25C663.8 313.25 663.3 330.45 670.6 333.05C677.9 335.75 684.6 329.45 684.6 329.45" stroke="#221b38" stroke-miterlimit="10" stroke-width="1"></path>
<path d="M674.1 333.75L660.2 424.15L671.2 532.65" stroke="#221b38" stroke-miterlimit="10" stroke-width="1"></path>
<path d="M633.1 212.05C633.1 212.05 636.2 213.75 635.4 220.45C634.4 228.85 622 236.75 622 236.75L617.9 227.75C617.9 227.85 635.5 222.45 633.1 212.05Z" fill="none" stroke="#221b38" stroke-width="1"></path>
<path d="M611.5 210.85C611.5 210.85 608.5 213.55 608.1 214.25C602.9 223.25 610.7 233.15 610.7 233.15L612.5 223.75C612.5 223.75 611.3 221.25 611.5 210.85Z" fill="none" stroke="#221b38" stroke-width="1"></path>
<path d="M635 217.45L633.8 212.85C633.7 212.55 633.5 212.25 633.3 212.05L627.3 209.25C627.3 209.25 630.4 215.05 629.6 217.65C627.2 225.75 617.6 226.55 617.7 227.25C617.8 227.95 621.9 233.05 621.9 233.05C621.9 233.05 623.4 233.35 628 229.35C632.7 225.35 634 219.65 634 219.65L635 217.45Z" fill="none" stroke="#221b38" stroke-width="1"></path>
<path d="M615.4 226.25C615.9 226.35 615.4 228.15 615.3 228.35C614.3 230.25 611.1 235.55 611.1 235.55C609 232.55 607.9 227.85 607.1 223.95L611.1 219.05C610.8 219.95 612.9 225.85 615.4 226.25Z" fill="none" stroke="#221b38" stroke-width="1"></path>
<path d="M712.7 287.55C715.185 287.55 717.2 285.535 717.2 283.05C717.2 280.565 715.185 278.55 712.7 278.55C710.215 278.55 708.2 280.565 708.2 283.05C708.2 285.535 710.215 287.55 712.7 287.55Z" fill="none" stroke="#221b38" stroke-width="1"></path>
<path d="M434.9 111.75C437.386 111.75 439.4 109.735 439.4 107.25C439.4 104.765 437.386 102.75 434.9 102.75C432.415 102.75 430.4 104.765 430.4 107.25C430.4 109.735 432.415 111.75 434.9 111.75Z" fill="none" stroke="#221b38" stroke-width="1"></path>
<path d="M667.2 33.45C669.685 33.45 671.7 31.4352 671.7 28.95C671.7 26.4647 669.685 24.45 667.2 24.45C664.715 24.45 662.7 26.4647 662.7 28.95C662.7 31.4352 664.715 33.45 667.2 33.45Z" fill="none" stroke="#221b38" stroke-width="1"></path>
<path d="M77.4004 201.15C79.8857 201.15 81.9004 199.135 81.9004 196.65C81.9004 194.165 79.8857 192.15 77.4004 192.15C74.9151 192.15 72.9004 194.165 72.9004 196.65C72.9004 199.135 74.9151 201.15 77.4004 201.15Z" stroke="#221b38" stroke-miterlimit="10" stroke-width="1"></path>
<path d="M265.4 142.65C267.886 142.65 269.9 140.635 269.9 138.15C269.9 135.665 267.886 133.65 265.4 133.65C262.915 133.65 260.9 135.665 260.9 138.15C260.9 140.635 262.915 142.65 265.4 142.65Z" stroke="#221b38" stroke-miterlimit="10" stroke-width="1"></path>
<path d="M237.7 98.75L227.2 118.05L249.1 106.45C249.1 106.45 242.1 105.05 237.7 98.75Z" fill="none" stroke="#221b38" stroke-width="1"></path>
<path d="M712.7 131.85C712.7 131.85 716.5 142.45 716.6 144.95H719.2C719.2 144.95 719.2 135.35 722.6 131.85" stroke="#221b38" stroke-width="1" stroke-miterlimit="10" stroke-linecap="round"></path>
<path d="M270 88.05C270 88.05 271.5 82.75 275.4 83.55C279.3 84.35 280.5 87.15 279.2 89.15C278.2 90.65 274.8 92.35 275.4 95.85" stroke="#221b38" stroke-width="1" stroke-miterlimit="10" stroke-linecap="round"></path>
<path d="M276.1 103.75C277.15 103.75 278 102.899 278 101.85C278 100.801 277.15 99.95 276.1 99.95C275.051 99.95 274.2 100.801 274.2 101.85C274.2 102.899 275.051 103.75 276.1 103.75Z" fill="none" stroke="#221b38" stroke-width="1"></path>
<path d="M748.4 147.75C748.4 169.65 663.9 179.35 661.3 146.75C659.6 124.95 680.3 106.55 706.5 106.55C732.7 106.55 748.4 125.85 748.4 147.75Z" stroke="#221b38" stroke-miterlimit="10" stroke-width="1"></path>
<path d="M677.6 129.95C682.7 100.35 769.7 120.05 766 141.65C762.3 163.25 743.4 181.45 717.6 177.05C691.8 172.65 673.9 151.55 677.6 129.95Z" stroke="#221b38" stroke-miterlimit="10" stroke-width="1"></path>
<path d="M710.8 133.55C710.8 133.55 713.2 135.85 714.8 134.65C716.4 133.45 716.7 131.25 715.7 131.05C714.8 130.85 714 134.25 717.6 134.65C721.2 135.05 720.9 129.15 719.5 128.75C718.1 128.35 717.6 132.45 722.8 134.35" stroke="#221b38" stroke-width="1" stroke-miterlimit="10" stroke-linecap="round"></path>
<path d="M341.6 224.45L346.3 260.15L368.9 256.85L341.6 224.45Z" fill="none" stroke="#221b38" stroke-width="1"></path>
<path d="M486.9 462.451L447.1 459.051L445.3 484.251L486.9 462.451Z" fill="none" stroke="#221b38" stroke-width="1"></path>
<path d="M72.8004 46.6499L33.4004 53.1499L37.8004 78.0499L72.8004 46.6499Z" fill="#414042" stroke="#221b38" stroke-width="1"></path>
<path d="M172.3 37.55H160.6V49.25H172.3V37.55Z" fill="none" stroke="#221b38" stroke-width="1"></path>
<path d="M525.3 395.75H509.3V411.75H525.3V395.75Z" stroke="#221b38" stroke-miterlimit="10" stroke-width="1"></path>
<path d="M747.619 450.757L726.922 462.707L738.872 483.404L759.569 471.454L747.619 450.757Z" fill="#F0F1F1" stroke="#221b38" stroke-width="1"></path>
<path d="M266.6 217.15C267.9 214.85 269.3 212.25 271.4 210.55C274.2 208.35 279.7 204.95 282.9 207.05C285.4 208.75 278.9 213.45 277.9 214.55C276.1 218.65 277.8 223.65 280.5 226.05C282.5 227.85 283.7 228.45 285.7 228.75C280.8 231.15 276.2 232.95 270.7 233.25C269.2 227.95 267.9 222.55 266.6 217.15Z" fill="#E5C9AF" stroke="#221b38" stroke-width="1"></path>
<path d="M222.4 480.45C224 480.35 234.7 482.55 234 478.95C233.3 475.25 223.9 477.65 222.4 480.45Z" stroke="#221b38" stroke-miterlimit="10" stroke-width="1"></path>
<path d="M223.401 481.25C223.801 480.35 230.401 473.85 227.101 473.15C223.801 472.45 221.201 478.15 223.401 481.25Z" stroke="#221b38" stroke-miterlimit="10" stroke-width="1"></path>
<path d="M130.2 498.75C133 499.05 135.8 499.35 138.6 499.65C139.2 494.25 139.8 488.85 140.4 483.45C137.6 483.15 134.8 482.85 132 482.55C131.4 487.95 130.8 493.35 130.2 498.75Z" fill="#EFD8C3" stroke="#221b38" stroke-width="1"></path>
<path d="M139 496.25C137.7 497.85 136.1 499.35 134 499.05C131.8 498.75 130.9 496.95 130.6 495.05C129 497.15 127.4 499.25 127 502.05C126.9 502.95 126.6 504.55 126.9 505.45C127.4 507.05 129.5 506.85 131.1 506.95C144 507.95 157.8 509.55 170.5 510.55C172.1 510.65 173.3 509.75 172.5 508.25C171.7 506.75 174 506.15 169.8 505.05C161.8 502.85 148.2 498.95 139 496.25Z" fill="none" stroke="#221b38" stroke-width="1"></path>
<path d="M171 512.05C156.5 510.95 141.9 509.45 127.4 508.35C126.8 508.35 126.6 508.75 126.5 509.15C126.4 509.65 126.4 510.15 126.5 510.65C126.5 511.15 126.7 511.45 127.3 511.55C141.8 512.15 156.5 513.15 170.9 513.75C171.5 513.75 171.8 513.35 171.8 512.95C171.9 512.95 171.8 512.95 171.8 512.95C171.8 512.45 171.6 512.15 171 512.05Z" fill="none" stroke="#221b38" stroke-width="1"></path>
<path d="M141 497.45C140.9 497.55 141 497.85 141.1 497.85C142.8 497.85 153.3 499.75 152.5 496.15C151.8 492.65 142.9 494.95 141 497.45Z" stroke="#221b38" stroke-miterlimit="10" stroke-width="1"></path>
<path d="M140.301 497.45C140.401 497.65 140.801 497.65 140.901 497.55C141.501 496.65 148.501 489.95 145.201 489.35C142.001 488.75 138.701 493.95 140.301 497.45Z" stroke="#221b38" stroke-miterlimit="10" stroke-width="1"></path>
<path d="M211.7 481.35C214.5 481.65 217.3 481.95 220.1 482.25C220.8 476.75 221.6 471.25 222.4 465.75C219.6 465.45 216.9 465.05 214.1 464.75C213.4 470.35 212.5 475.85 211.7 481.35Z" fill="#EFD8C3" stroke="#221b38" stroke-width="1"></path>
<path d="M220.6 478.85C219.3 480.45 217.7 481.95 215.5 481.65C213.3 481.35 212.4 479.55 212.1 477.55C210.4 479.65 208.8 481.75 208.3 484.55C208.2 485.45 207.9 487.05 208.2 487.95C208.7 489.55 210.8 489.35 212.4 489.45C225.4 490.55 239.3 492.15 252.2 493.15C253.8 493.25 255 492.35 254.2 490.85C253.4 489.35 255.6 488.75 251.4 487.65C243.4 485.65 229.8 481.75 220.6 478.85Z" fill="none" stroke="#221b38" stroke-width="1"></path>
<path d="M252.8 494.85C238.2 493.65 223.4 492.25 208.8 491.05C208.2 490.95 208 491.35 207.9 491.85C207.8 492.35 207.8 492.85 207.9 493.35C207.9 493.85 208.1 494.15 208.7 494.25C223.3 494.85 238.2 495.95 252.8 496.55C253.4 496.55 253.7 496.15 253.7 495.75C253.8 495.75 253.7 495.75 253.7 495.75C253.6 495.15 253.4 494.85 252.8 494.85Z" fill="none" stroke="#221b38" stroke-width="1"></path>
<path d="M133.4 276.95C132.8 282.75 130.7 304.85 131.3 308.05C137 337.25 141.5 360.45 145.8 387.95C137.7 420.65 132 454.45 125.2 487.55C132.3 487.55 138.8 487.95 146.3 487.65C155.3 457.75 169.5 422.15 178.1 393.95C186.7 365.75 185.9 347.05 190 320.05C193.4 321.55 197.3 323.45 201.3 323.75C203.5 346.25 209.4 351.35 210.3 377.75C211.2 404.15 209.6 442.65 207.4 472.05C213.3 472.85 219.7 471.55 225.8 471.55C234.6 434.55 241.8 397.65 246.3 359.85C232.2 333.15 214.1 309.45 200.4 281.65C199.9 277.05 199.4 272.45 198.9 267.75C177.1 270.95 155.5 274.15 133.4 276.95Z" fill="none" stroke="#221b38" stroke-width="1"></path>
<path d="M213 375.85C204.2 361.95 194.1 351.05 186 336.95C182.9 317.85 180.1 298.75 177.4 279.65C181.2 279.55 185 279.35 188.8 279.15C197.6 299.75 207.7 319.85 220.1 338.45C219.3 350.05 214.5 364.45 213 375.85Z" fill="none" stroke="#221b38" stroke-width="1"></path>
<path d="M213 375.85C204.2 361.95 187.398 339.735 187.398 339.735V309.579C187.398 309.579 215.482 322.053 220.1 338.45C222.409 346.65 221.63 353.62 220.1 360.263C218.647 366.567 213.73 370.3 213 375.85Z" fill="black" fill-opacity="0.1" stroke="#221b38" stroke-width="1"></path>
<path d="M199 216.35C196.5 202.55 194.1 180.45 188.6 164.65C197.1 168.85 205.5 166.85 212.1 175.55C221.4 187.75 216.7 209.35 223.7 220.35C237.4 218.05 251.3 216.35 265 213.85C266.8 221.35 269 228.15 270.7 236.05C254.9 242.45 233.8 250.65 219.2 250.55C204.6 250.35 201.5 230.15 199 216.35Z" stroke="#221b38" stroke-miterlimit="10" stroke-linecap="round" stroke-width="1"></path>
<path d="M214.2 267.05C212.1 265.55 212.6 261.85 215.5 263.05C219.3 264.65 224.6 265.55 228 268.95C230 270.95 224.4 271.65 222.6 270.95C220.4 270.05 216 268.45 214.2 267.05Z" fill="none" stroke="#221b38" stroke-width="1"></path>
<path d="M212.9 175.85C212.7 173.45 211.4 171.25 209.4 169.95C201.8 164.85 188.9 161.75 181.9 160.65C169.9 158.85 168.4 158.35 156.9 160.95C152.1 162.05 145 165.75 139.7 168.35C136.3 170.05 132.3 171.95 129.2 174.95C129.2 174.65 129.2 174.95 129.2 174.95C120.2 183.85 119.4 195.15 120.2 207.35C121.3 224.95 122 242.65 122.9 260.05C123 262.05 123.5 262.65 124.3 264.45C124.4 268.85 124.2 277.25 124.4 280.85C124.5 284.45 127 286.95 130.5 286.35C149.2 283.05 189.5 290.95 203.1 285.25C219.2 278.35 214.8 197.05 212.9 175.85Z" fill="none" stroke="#221b38" stroke-width="1"></path>
<path d="M207.1 259.95C210.5 258.75 214.8 256.25 218.4 256.75C220.9 257.15 222.3 259.65 224.3 260.95C224.9 261.35 223.1 262.85 222.3 262.75C221 262.55 219.4 261.75 218.3 260.75C217 261.65 215.7 262.55 214.5 263.45C212.1 262.35 209.6 261.25 207.1 259.95Z" fill="none" stroke="#221b38" stroke-width="1"></path>
<path d="M216.2 263.35C213.8 261.65 215.4 259.85 217.6 260.15C221.7 260.75 225.8 261.15 229.2 264.55C231.2 266.55 227 268.15 224.8 267.35C222.1 266.35 218.3 264.85 216.2 263.35Z" fill="none" stroke="#221b38" stroke-width="1"></path>
<path d="M163.8 293.55C163.7 297.75 160.9 305.35 157.3 306.75C151 309.25 147.8 306.55 143.4 303.25" stroke="#221b38" stroke-miterlimit="10" stroke-width="1"></path>
<path d="M156.3 307.85C158.9 335.25 159.7 362.65 161.3 390.25C152.4 420.55 145.5 451.55 137.8 482.25" stroke="#221b38" stroke-miterlimit="10" stroke-width="1"></path>
<path d="M163.1 139.95C163.2 148.65 161.8 152.85 162.2 162.45C162.6 172.05 177.5 184.55 187.9 176.05C191.7 172.95 189.3 163.15 189.9 158.95" fill="#EFD8C3" stroke="#221b38" stroke-width="1"></path>
<path d="M163.1 139.95C163.2 148.65 161.8 152.85 162.2 162.45C162.6 172.05 177.5 184.55 187.9 176.05C191.7 172.95 189.3 163.15 189.9 158.95" stroke="#221b38" stroke-miterlimit="10" stroke-linecap="round" stroke-width="1"></path>
<path d="M170 150.95C172.3 152.85 174.6 154.95 176.9 156.75L177.4 157.05C177.4 157.05 190.2 161.95 195.2 155.65C200.2 149.45 201.2 132.45 200.4 124.15C200 120.65 199.1 119.05 198.6 115.95L173.5 116.95L162.5 119.35L157.4 121.65L161.868 128.531L160.9 131.45L161.5 135.25L162.5 138.55" fill="#EFD8C3" stroke="#221b38" stroke-width="1"></path>
<path d="M170 150.95C172.3 152.85 174.6 154.95 176.9 156.75L177.4 157.05C177.4 157.05 190.2 161.95 195.2 155.65C200.2 149.45 201.2 132.45 200.4 124.15C200 120.65 199.1 119.05 198.6 115.95L173.5 116.95L162.5 119.35L157.4 121.65L161.868 128.531L160.9 131.45L161.5 135.25L162.5 138.55" stroke="#221b38" stroke-miterlimit="10" stroke-linecap="round" stroke-width="1"></path>
<path d="M168.5 145.55C168.6 145.75 168.9 145.75 169.1 145.65C169.3 145.55 169.3 145.25 169.2 145.05C169.1 144.85 168.8 144.85 168.6 144.95C168.4 145.05 168.4 145.35 168.5 145.55Z" fill="#231F20" stroke="#221b38" stroke-width="1"></path>
<path d="M168.9 144.85C168.8 144.85 168.7 144.85 168.7 144.95C168.5 145.05 168.5 145.35 168.6 145.55C168.7 145.65 168.8 145.75 168.9 145.75C169 145.75 169.1 145.75 169.1 145.65C169.3 145.55 169.3 145.25 169.2 145.05C169.1 144.95 169 144.85 168.9 144.85Z" fill="#414042" stroke="#221b38" stroke-width="1"></path>
<path d="M193.9 152.75C194 152.95 194.3 153.05 194.5 152.85C194.7 152.75 194.7 152.45 194.6 152.25C194.5 152.05 194.2 151.95 194 152.15C193.9 152.25 193.8 152.55 193.9 152.75Z" fill="#231F20" stroke="#221b38" stroke-width="1"></path>
<path d="M194.3 152.15C194.2 152.15 194.1 152.15 194.1 152.25C193.9 152.35 193.9 152.65 194 152.85C194.1 152.95 194.2 153.05 194.4 153.05C194.5 153.05 194.6 153.05 194.6 152.95C194.8 152.85 194.8 152.55 194.7 152.35C194.6 152.15 194.4 152.15 194.3 152.15Z" fill="#414042" stroke="#221b38" stroke-width="1"></path>
<path d="M171.999 142.95C172.099 143.15 172.399 143.15 172.599 143.05C172.799 142.95 172.799 142.65 172.699 142.45C172.599 142.25 172.299 142.25 172.099 142.35C171.999 142.45 171.899 142.75 171.999 142.95Z" fill="#231F20" stroke="#221b38" stroke-width="1"></path>
<path d="M172.4 142.25C172.3 142.25 172.2 142.25 172.2 142.35C172 142.45 172 142.75 172.1 142.95C172.2 143.05 172.3 143.15 172.4 143.15C172.5 143.15 172.6 143.15 172.6 143.05C172.8 142.95 172.8 142.65 172.7 142.45C172.6 142.35 172.5 142.25 172.4 142.25Z" fill="#414042" stroke="#221b38" stroke-width="1"></path>
<path d="M166.7 140.65C166.8 140.85 167.1 140.85 167.3 140.75C167.5 140.65 167.5 140.35 167.4 140.15C167.3 139.95 167 139.95 166.8 140.05C166.6 140.25 166.5 140.55 166.7 140.65Z" fill="#231F20" stroke="#221b38" stroke-width="1"></path>
<path d="M166.999 140.05C166.899 140.05 166.799 140.05 166.799 140.15C166.599 140.25 166.599 140.55 166.699 140.75C166.799 140.85 166.899 140.95 166.999 140.95C167.099 140.95 167.199 140.95 167.199 140.85C167.399 140.75 167.399 140.45 167.299 140.25C167.299 140.15 167.199 140.05 166.999 140.05Z" fill="#414042" stroke="#221b38" stroke-width="1"></path>
<path d="M170.9 149.15C171 149.35 171.3 149.35 171.5 149.25C171.7 149.15 171.7 148.85 171.6 148.65C171.5 148.45 171.2 148.45 171 148.55C170.8 148.65 170.7 148.95 170.9 149.15Z" fill="#231F20" stroke="#221b38" stroke-width="1"></path>
<path d="M171.2 148.45C171.1 148.45 171 148.45 171 148.55C170.8 148.65 170.8 148.95 170.9 149.15C171 149.25 171.1 149.35 171.2 149.35C171.3 149.35 171.4 149.35 171.4 149.25C171.6 149.15 171.6 148.85 171.5 148.65C171.5 148.55 171.3 148.45 171.2 148.45Z" fill="#414042" stroke="#221b38" stroke-width="1"></path>
<path d="M173.9 148.55C174 148.75 174.3 148.75 174.5 148.65C174.7 148.55 174.7 148.25 174.6 148.05C174.5 147.85 174.2 147.85 174 147.95C173.8 148.05 173.8 148.35 173.9 148.55Z" fill="#231F20" stroke="#221b38" stroke-width="1"></path>
<path d="M174.299 147.85C174.199 147.85 174.099 147.85 174.099 147.95C173.899 148.05 173.899 148.35 173.999 148.55C174.099 148.65 174.199 148.75 174.299 148.75C174.399 148.75 174.499 148.75 174.499 148.65C174.699 148.55 174.699 148.25 174.599 148.05C174.499 147.95 174.399 147.85 174.299 147.85Z" fill="#414042" stroke="#221b38" stroke-width="1"></path>
<path d="M177.7 148.95C177.8 149.15 178.1 149.15 178.3 149.05C178.5 148.95 178.5 148.65 178.4 148.45C178.3 148.25 178 148.25 177.8 148.35C177.6 148.45 177.5 148.75 177.7 148.95Z" fill="#231F20" stroke="#221b38" stroke-width="1"></path>
<path d="M177.999 148.35C177.899 148.35 177.799 148.35 177.799 148.45C177.599 148.55 177.599 148.85 177.699 149.05C177.799 149.15 177.899 149.25 177.999 149.25C178.099 149.25 178.199 149.25 178.199 149.15C178.399 149.05 178.399 148.75 178.299 148.55C178.299 148.35 178.099 148.35 177.999 148.35Z" fill="#414042" stroke="#221b38" stroke-width="1"></path>
<path d="M175.6 152.85C175.7 153.05 176 153.05 176.2 152.95C176.4 152.85 176.4 152.55 176.3 152.35C176.2 152.15 175.9 152.15 175.7 152.25C175.5 152.45 175.5 152.75 175.6 152.85Z" fill="#231F20" stroke="#221b38" stroke-width="1"></path>
<path d="M175.999 152.25C175.899 152.25 175.799 152.25 175.799 152.35C175.599 152.45 175.599 152.75 175.699 152.95C175.799 153.05 175.899 153.15 175.999 153.15C176.099 153.15 176.199 153.15 176.199 153.05C176.399 152.95 176.399 152.65 176.299 152.45C176.199 152.35 176.099 152.25 175.999 152.25Z" fill="#414042" stroke="#221b38" stroke-width="1"></path>
<path d="M190.8 154.45C190.9 154.65 191.2 154.65 191.4 154.55C191.6 154.45 191.6 154.15 191.5 153.95C191.4 153.75 191.1 153.65 190.9 153.85C190.8 153.95 190.7 154.25 190.8 154.45Z" fill="#231F20" stroke="#221b38" stroke-width="1"></path>
<path d="M191.201 153.75C191.101 153.75 191.001 153.75 191.001 153.85C190.801 153.95 190.801 154.25 190.901 154.45C191.001 154.55 191.101 154.65 191.301 154.65C191.401 154.65 191.501 154.65 191.501 154.55C191.701 154.45 191.701 154.15 191.601 153.95C191.501 153.85 191.301 153.75 191.201 153.75Z" fill="#414042" stroke="#221b38" stroke-width="1"></path>
<path d="M184 156.45C184.1 156.65 184.4 156.65 184.6 156.55C184.8 156.45 184.8 156.15 184.7 155.95C184.6 155.75 184.3 155.75 184.1 155.85C183.9 156.05 183.9 156.25 184 156.45Z" fill="#231F20" stroke="#221b38" stroke-width="1"></path>
<path d="M184.3 155.85C184.2 155.85 184.1 155.85 184.1 155.95C183.9 156.05 183.9 156.35 184 156.55C184.1 156.65 184.2 156.75 184.3 156.75C184.4 156.75 184.5 156.75 184.5 156.65C184.7 156.55 184.7 156.25 184.6 156.05C184.6 155.85 184.5 155.85 184.3 155.85Z" fill="#414042" stroke="#221b38" stroke-width="1"></path>
<path d="M182.9 146.25C183 146.45 183.3 146.45 183.5 146.35C183.7 146.25 183.7 145.95 183.6 145.75C183.5 145.55 183.2 145.55 183 145.65C182.8 145.85 182.7 146.05 182.9 146.25Z" fill="#231F20" stroke="#221b38" stroke-width="1"></path>
<path d="M183.2 145.65C183.1 145.65 183 145.65 183 145.75C182.8 145.85 182.8 146.15 182.9 146.35C183 146.45 183.1 146.55 183.2 146.55C183.3 146.55 183.4 146.55 183.4 146.45C183.6 146.35 183.6 146.05 183.5 145.85C183.5 145.65 183.3 145.65 183.2 145.65Z" fill="#414042" stroke="#221b38" stroke-width="1"></path>
<path d="M181.1 151.45C181.2 151.65 181.5 151.65 181.7 151.55C181.9 151.45 181.9 151.15 181.8 150.95C181.7 150.75 181.4 150.75 181.2 150.85C181 150.95 181 151.25 181.1 151.45Z" fill="#231F20" stroke="#221b38" stroke-width="1"></path>
<path d="M181.4 150.75C181.3 150.75 181.2 150.75 181.2 150.85C181 150.95 181 151.25 181.1 151.45C181.2 151.55 181.3 151.65 181.5 151.65C181.6 151.65 181.7 151.65 181.7 151.55C181.9 151.45 181.9 151.15 181.8 150.95C181.7 150.85 181.6 150.75 181.4 150.75Z" fill="#414042" stroke="#221b38" stroke-width="1"></path>
<path d="M197.2 145.15C197.3 145.35 197.6 145.45 197.8 145.25C198 145.15 198 144.85 197.9 144.65C197.8 144.45 197.5 144.35 197.3 144.55C197.1 144.75 197 144.95 197.2 145.15Z" fill="#231F20" stroke="#221b38" stroke-width="1"></path>
<path d="M197.499 144.55C197.399 144.55 197.299 144.55 197.299 144.65C197.099 144.75 197.099 145.05 197.199 145.25C197.299 145.35 197.399 145.45 197.599 145.45C197.699 145.45 197.799 145.45 197.799 145.35C197.999 145.25 197.999 144.95 197.899 144.75C197.799 144.55 197.599 144.55 197.499 144.55Z" fill="#414042" stroke="#221b38" stroke-width="1"></path>
<path d="M191.299 146.75C191.399 146.95 191.699 146.95 191.899 146.85C192.099 146.75 192.099 146.45 191.999 146.25C191.899 146.05 191.599 146.05 191.399 146.15C191.199 146.35 191.099 146.55 191.299 146.75Z" fill="#231F20" stroke="#221b38" stroke-width="1"></path>
<path d="M191.599 146.15C191.499 146.15 191.399 146.15 191.399 146.25C191.199 146.35 191.199 146.65 191.299 146.85C191.399 146.95 191.499 147.05 191.599 147.05C191.699 147.05 191.799 147.05 191.799 146.95C191.999 146.85 191.999 146.55 191.899 146.35C191.899 146.15 191.699 146.15 191.599 146.15Z" fill="#414042" stroke="#221b38" stroke-width="1"></path>
<path d="M187.6 154.25C187.7 154.45 188 154.55 188.2 154.35C188.4 154.25 188.4 153.95 188.3 153.75C188.2 153.55 187.9 153.45 187.7 153.65C187.5 153.85 187.5 154.05 187.6 154.25Z" fill="#231F20" stroke="#221b38" stroke-width="1"></path>
<path d="M187.999 153.65C187.899 153.65 187.799 153.65 187.799 153.75C187.599 153.85 187.599 154.15 187.699 154.35C187.799 154.45 187.899 154.55 188.099 154.55C188.199 154.55 188.299 154.55 188.299 154.45C188.499 154.35 188.499 154.05 188.399 153.85C188.199 153.75 188.099 153.65 187.999 153.65Z" fill="#414042" stroke="#221b38" stroke-width="1"></path>
<path d="M195.7 148.35C195.8 148.55 196.1 148.65 196.3 148.45C196.5 148.25 196.5 148.05 196.4 147.85C196.3 147.65 196 147.55 195.8 147.75C195.6 147.95 195.5 148.15 195.7 148.35Z" fill="#231F20" stroke="#221b38" stroke-width="1"></path>
<path d="M195.999 147.75C195.899 147.75 195.799 147.75 195.799 147.85C195.599 147.95 195.599 148.25 195.699 148.45C195.799 148.55 195.899 148.65 196.099 148.65C196.199 148.65 196.299 148.65 196.299 148.55C196.499 148.45 196.499 148.15 196.399 147.95C196.299 147.75 196.099 147.75 195.999 147.75Z" fill="#414042" stroke="#221b38" stroke-width="1"></path>
<path d="M178.799 155.25C178.899 155.45 179.199 155.45 179.399 155.35C179.599 155.25 179.599 154.95 179.499 154.75C179.399 154.55 179.099 154.55 178.899 154.65C178.699 154.85 178.599 155.05 178.799 155.25Z" fill="#231F20" stroke="#221b38" stroke-width="1"></path>
<path d="M179.099 154.65C178.999 154.65 178.899 154.65 178.899 154.75C178.699 154.85 178.699 155.15 178.799 155.35C178.899 155.45 178.999 155.55 179.099 155.55C179.199 155.55 179.299 155.55 179.299 155.45C179.499 155.35 179.499 155.05 179.399 154.85C179.399 154.65 179.199 154.65 179.099 154.65Z" fill="#414042" stroke="#221b38" stroke-width="1"></path>
<path d="M190.3 163.45C186 164.55 176.8 164.35 173.9 161.65C170.1 158.15 171.7 155.05 170 151.25C171.2 152.35 172.7 153.05 173.7 154.25C174.7 155.45 176.3 157.15 177.7 157.45C180.3 157.95 181.5 157.85 184.1 158.15C185.9 158.35 188.1 158.95 190 158.45C190.1 160.15 190.3 161.85 190.3 163.45Z" fill="#414042" stroke="#221b38" stroke-width="1"></path>
<path d="M148.7 108.35C150.5 113.15 151 111.65 152.6 115.25C151.6 119.05 152.6 122.25 156.6 123.75C158.5 124.65 160.4 125.55 162.3 126.45C163 128.65 163.8 131.05 164.7 133.15C165.1 134.15 166.2 133.75 166.5 133.15C167.7 130.65 170.3 124.25 170.9 122.75C171.5 121.25 171.1 122.35 171.1 122.25C172.5 120.55 177.9 120.85 179.2 120.95C185.2 121.35 192 122.55 197.3 120.35C197.8 120.15 197.6 120.05 197.8 119.95C198.8 119.75 199.7 119.05 200.2 120.85C200.7 122.65 200.8 126.15 201.2 128.15C200.8 129.25 202.1 128.25 202.1 127.85C203.7 124.25 205.2 107.75 201.8 106.95C198.4 106.15 198.5 106.85 198.4 105.25C197.7 97.6501 193 95.8501 186.4 95.2501C185.5 95.1501 183.9 95.35 182.6 95.15C174.6 94.15 163.6 92.8501 158.2 86.1501C157.9 89.5501 157.7 92.8501 157.4 96.2501C152.6 94.1501 150.4 89.85 148.1 85.55C147.3 91.65 146.9 103.65 148.7 108.35Z" fill="none" stroke="#221b38" stroke-width="1"></path>
<path d="M156.801 120.85C149.701 124.75 155.401 134.75 157.701 137.55C160.601 141.25 159.101 145.15 162.301 144.65C163.301 144.45 163.801 141.55 163.801 140.35C163.801 138.65 163.501 136.45 163.501 134.65C163.101 135.05 162.601 135.45 162.201 135.85C162.001 133.15 161.801 130.35 161.601 127.65C162.201 126.95 162.901 126.25 163.501 125.55C161.201 124.05 158.801 122.25 156.801 120.85Z" fill="none" stroke="#221b38" stroke-width="1"></path>
<path d="M162.701 133.35C163.201 133.95 162.701 135.65 162.101 135.75C156.601 137.05 154.701 129.95 157.301 126.25C157.401 126.15 157.501 126.05 157.601 126.05C160.301 124.95 162.401 126.55 162.301 129.45C162.301 129.55 162.201 129.75 162.201 129.85" fill="#EFD8C3" stroke="#221b38" stroke-width="1"></path>
<path d="M162.701 133.35C163.201 133.95 162.701 135.65 162.101 135.75C156.601 137.05 154.701 129.95 157.301 126.25C157.401 126.15 157.501 126.05 157.601 126.05C160.301 124.95 162.401 126.55 162.301 129.45C162.301 129.55 162.201 129.75 162.201 129.85" stroke="#221b38" stroke-miterlimit="10" stroke-linecap="round" stroke-width="1"></path>
<path d="M159.501 127.05C158.801 127.45 158.201 127.75 157.501 128.15L159.501 127.05Z" fill="white" stroke="#221b38" stroke-width="1"></path>
<path d="M159.501 127.05C158.801 127.45 158.201 127.75 157.501 128.15" stroke="#221b38" stroke-width="1" stroke-miterlimit="10" stroke-linecap="round"></path>
<path d="M160.901 128.95C160.401 129.25 159.901 129.45 159.501 129.75L160.901 128.95Z" fill="white" stroke="#221b38" stroke-width="1"></path>
<path d="M160.901 128.95C160.401 129.25 159.901 129.45 159.501 129.75" stroke="#221b38" stroke-width="1" stroke-miterlimit="10" stroke-linecap="round"></path>
<path d="M171.1 122.15C171.1 122.05 171.4 121.95 171.5 121.85C173.1 120.95 178.035 121.25 179.135 121.35C184.435 121.95 192.5 123.05 196.6 121.35C198.2 120.65 198.3 119.15 199 120.35C200.1 122.25 199.7 125.35 200.4 127.55C200.8 127.85 201.9 128.15 202.2 127.75C205 124.15 206 106.95 202.1 106.35C198.3 105.75 199.1 106.55 198.9 104.85C198.1 97.3501 193 95.5501 186.6 95.0501C185.7 94.9501 183.8 95.1501 182.9 95.0501C185.7 97.4501 190.7 101.95 188.3 105.85C184.7 111.45 170.7 115.05 171.1 122.15Z" fill="none" stroke="#221b38" stroke-width="1"></path>
<path d="M184.301 130.65C181.401 130.95 178.001 131.15 175.101 131.45C174.501 131.55 174.101 131.25 174.101 130.65C174.101 130.45 174.301 130.35 174.401 130.15C174.601 129.45 176.201 129.05 176.701 128.95C178.801 128.45 184.601 127.45 185.901 128.05C187.101 128.65 186.101 128.75 186.301 129.35C186.501 129.95 184.901 130.55 184.301 130.65Z" fill="#414042" stroke="#221b38" stroke-width="1"></path>
<path d="M197 134.05C197 134.55 197.4 134.85 197.9 134.85C198.4 134.85 198.7 134.45 198.7 134.05C198.7 133.55 198.3 133.25 197.8 133.25C197.3 133.25 197 133.55 197 134.05Z" fill="#414042" stroke="#221b38" stroke-width="1"></path>
<path d="M179.6 134.45C179.6 134.95 180 135.25 180.5 135.25C181 135.25 181.3 134.85 181.3 134.45C181.3 133.95 180.9 133.65 180.4 133.65C179.9 133.55 179.5 133.95 179.6 134.45Z" fill="#414042" stroke="#221b38" stroke-width="1"></path>
<path d="M194.3 130.05C197.6 130.25 201.3 130.45 204.7 130.65C205.3 130.65 205.7 130.35 205.7 129.75C205.7 129.55 205.4 129.45 205.4 129.25C205.2 128.55 203.5 128.25 203 128.15C200.9 127.75 195 127.15 193.8 127.75C192.6 128.45 193.7 128.45 193.5 129.05C193.2 129.65 193.7 130.05 194.3 130.05Z" fill="#414042" stroke="#221b38" stroke-width="1"></path>
<path d="M190.7 130.95C191.6 133.35 193.7 139.65 192.7 141.65C191.7 143.65 190.5 141.95 189.4 142.75" stroke="#221b38" stroke-miterlimit="10" stroke-linecap="round" stroke-width="1"></path>
<path d="M193.8 148.55C193 149.35 191.6 149.95 190.6 150.05C188.5 150.25 186.9 149.75 185.2 148.65" stroke="#221b38" stroke-miterlimit="10" stroke-linecap="round" stroke-width="1"></path>
<path d="M150.1 207.85C151 219.35 151.8 230.85 152.3 242.45C169.6 247.85 186.7 253.65 204 259.15C203.7 262.45 203.6 263.05 203.2 266.95C202.8 270.85 201.9 278.05 201.6 282.65C177 277.95 152.6 272.35 128.2 266.55" stroke="#221b38" stroke-miterlimit="10" stroke-width="1"></path>
<path d="M589.4 187.55C590.007 187.55 590.5 187.057 590.5 186.45C590.5 185.842 590.007 185.35 589.4 185.35C588.792 185.35 588.3 185.842 588.3 186.45C588.3 187.057 588.792 187.55 589.4 187.55Z" fill="#231F20" stroke="#221b38" stroke-width="1"></path>
<path d="M601.1 186.35C601.708 186.35 602.2 185.858 602.2 185.25C602.2 184.643 601.708 184.15 601.1 184.15C600.493 184.15 600 184.643 600 185.25C600 185.858 600.493 186.35 601.1 186.35Z" fill="#231F20" stroke="#221b38" stroke-width="1"></path>
<path d="M598.501 179.65C598.501 179.65 603.401 178.85 604.301 179.55C605.301 180.25 604.401 180.55 604.401 180.55C604.401 180.55 597.201 181.35 597.401 180.55C597.601 179.75 597.301 179.85 598.501 179.65Z" fill="#231F20" stroke="#221b38" stroke-width="1"></path>
<path d="M588.801 180.15C588.801 180.15 583.901 180.55 583.101 181.55C582.401 182.55 583.301 182.55 583.301 182.55C583.301 182.55 590.401 181.55 590.101 180.85C589.701 180.05 590.001 180.05 588.801 180.15Z" fill="#231F20" stroke="#221b38" stroke-width="1"></path>
<path d="M722.3 146.95H713.2C712.6 146.95 712.1 146.45 712.1 145.85V145.65C712.1 145.05 712.6 144.55 713.2 144.55H722.3C722.9 144.55 723.4 145.05 723.4 145.65V145.85C723.5 146.45 723 146.95 722.3 146.95Z" fill="none" stroke="#221b38" stroke-width="1"></path>
<path d="M722.3 148.75H713.2C712.6 148.75 712.1 148.25 712.1 147.65V147.45C712.1 146.85 712.6 146.35 713.2 146.35H722.3C722.9 146.35 723.4 146.85 723.4 147.45V147.65C723.5 148.25 723 148.75 722.3 148.75Z" fill="none" stroke="#221b38" stroke-width="1"></path>
<path d="M722.3 150.55H713.2C712.6 150.55 712.1 150.05 712.1 149.45V149.25C712.1 148.65 712.6 148.15 713.2 148.15H722.3C722.9 148.15 723.4 148.65 723.4 149.25V149.45C723.5 150.05 723 150.55 722.3 150.55Z" fill="none" stroke="#221b38" stroke-width="1"></path>
<path d="M69.9994 396.65C66.1994 380.15 61.7994 349.15 74.5994 316.25C98.0994 255.85 169.899 213.15 220.499 230.05C242.799 237.55 267.499 259.15 266.799 281.85C266.399 296.85 254.899 315.65 242.299 315.85C234.299 315.95 228.499 308.35 227.199 306.65C217.399 293.85 213.499 270.55 224.399 259.15C235.299 247.75 251.799 257.35 280.399 247.85C310.399 237.85 325.199 219.55 328.699 214.95C334.599 207.15 343.099 195.95 340.999 182.25C339.199 171.05 330.399 157.95 319.599 157.75C310.399 157.55 291.199 177.65 289.499 179.95C277.999 195.85 279.499 212.15 280.799 218.65C293.399 279.65 403.699 331.05 396.499 379.35C388.499 433.15 275.499 476.95 249.399 450.55C226.099 426.95 258.899 332.45 315.999 312.65C355.999 298.85 398.599 324.95 466.499 366.65C548.499 416.95 562.399 449.05 608.999 450.55C663.599 452.25 712.999 410.65 708.999 393.15C703.599 369.55 599.699 382.65 583.799 338.05C579.799 326.85 583.299 317.65 575.899 312.55C558.199 300.25 519.999 340.75 501.599 328.45C490.999 321.35 498.899 304.55 485.699 293.05C473.999 282.85 459.999 289.05 444.699 286.35C405.599 279.35 369.199 215.85 383.799 186.35C397.199 159.45 448.699 182.75 506.699 144.95C533.199 127.75 566.999 93.8502 559.599 70.2502C550.599 41.9502 484.599 36.4502 437.799 47.2502C426.199 49.9502 361.599 64.9502 356.199 98.9502C348.899 145.05 451.099 224.85 519.299 203.55C585.599 182.85 575.199 72.7502 649.099 46.1502C688.499 31.9502 730.199 48.8502 755.599 62.2502" stroke="#221b38" stroke-miterlimit="10" stroke-linecap="round" stroke-width="1"></path>
<path d="M69.9994 396.65C66.1994 380.15 61.7994 349.15 74.5994 316.25C98.0994 255.85 169.899 213.15 220.499 230.05C242.799 237.55 267.499 259.15 266.799 281.85C266.399 296.85 254.899 315.65 242.299 315.85C234.299 315.95 228.499 308.35 227.199 306.65C217.399 293.85 213.499 270.55 224.399 259.15C235.299 247.75 251.799 257.35 280.399 247.85C310.399 237.85 325.199 219.55 328.699 214.95C334.599 207.15 343.099 195.95 340.999 182.25C339.199 171.05 330.399 157.95 319.599 157.75C310.399 157.55 291.199 177.65 289.499 179.95C277.999 195.85 279.499 212.15 280.799 218.65C293.399 279.65 403.699 331.05 396.499 379.35C388.499 433.15 275.499 476.95 249.399 450.55C226.099 426.95 258.899 332.45 315.999 312.65C355.999 298.85 398.599 324.95 466.499 366.65C548.499 416.95 562.399 449.05 608.999 450.55C663.599 452.25 712.999 410.65 708.999 393.15C703.599 369.55 599.699 382.65 583.799 338.05C579.799 326.85 583.299 317.65 575.899 312.55C558.199 300.25 519.999 340.75 501.599 328.45C490.999 321.35 498.899 304.55 485.699 293.05C473.999 282.85 459.999 289.05 444.699 286.35C405.599 279.35 369.199 215.85 383.799 186.35C397.199 159.45 448.699 182.75 506.699 144.95C533.199 127.75 566.999 93.8502 559.599 70.2502C550.599 41.9502 484.599 36.4502 437.799 47.2502C426.199 49.9502 361.599 64.9502 356.199 98.9502C348.899 145.05 451.099 224.85 519.299 203.55C585.599 182.85 575.199 72.7502 649.099 46.1502C688.499 31.9502 730.199 48.8502 755.599 62.2502" stroke="#221b38" stroke-opacity="0.29" stroke-miterlimit="10" stroke-linecap="round" stroke-width="1"></path>
<path d="M275.4 216.55C275.3 214.85 277.8 209.45 280.5 209.05C283.7 208.65 285.1 205.05 288.7 208.35C292.3 211.65 292.8 223.85 289.7 228.65C289.2 229.45 287.6 229.95 286.6 230.15C285.6 230.35 286.3 230.75 284.7 230.45C278.4 229.05 275.8 223.75 275.4 216.55Z" fill="none" stroke="#221b38" stroke-width="1"></path>
<path d="M204.1 261.25C206.6 259.75 211.8 258.35 213.9 260.05C216 261.75 215.9 263.05 217.5 264.65C221.4 263.45 225.8 261.95 229.6 264.85C230.5 265.55 230.2 268.25 229.7 269.95C229.2 271.65 228.5 274.45 227.6 276.55C227.1 277.75 227.2 279.05 226.2 280.85C225.3 282.65 220.8 285.65 218.2 285.65C212.1 285.65 206.4 284.55 202.1 279.95C202.6 273.65 203.2 267.35 204.1 261.25Z" fill="none" stroke="#221b38" stroke-width="1"></path>
<path d="M184.3 226.45C184.5 226.75 184.3 227.05 184 227.05C179.8 226.65 160.8 224.55 166 217.05C171.2 209.65 181.9 223.25 184.3 226.45Z" stroke="#221b38" stroke-miterlimit="10" stroke-width="1"></path>
<path d="M184.2 226.95C184 226.85 183.8 226.95 183.8 227.25C184.3 230.05 186.7 242.65 191.4 238.75C196.2 234.75 186.5 228.35 184.2 226.95Z" stroke="#221b38" stroke-miterlimit="10" stroke-width="1"></path>
<path d="M318.799 157.45C318.999 157.75 318.8 158.05 318.5 158.05C314.3 157.65 295.3 155.55 300.5 148.05C305.7 140.55 316.399 154.25 318.799 157.45Z" stroke="#221b38" stroke-miterlimit="10" stroke-width="1"></path>
<path d="M318.7 157.85C318.5 157.75 318.3 157.85 318.3 158.15C318.8 160.95 321.2 173.55 325.9 169.65C330.7 165.65 321 159.25 318.7 157.85Z" stroke="#221b38" stroke-miterlimit="10" stroke-width="1"></path>
<path d="M344.534 403.748L340.675 436.825L376.434 440.997L380.293 407.92L344.534 403.748Z" fill="white" stroke="#221b38" stroke-miterlimit="10" stroke-width="1"></path>
<path d="M373.505 414.27L349.566 411.476L349.404 412.867L373.343 415.66L373.505 414.27Z" fill="#414042" stroke="#221b38" stroke-width="1"></path>
<path d="M372.502 423.174L348.563 420.381L348.401 421.771L372.34 424.564L372.502 423.174Z" fill="#414042" stroke="#221b38" stroke-width="1"></path>
<path d="M371.411 431.967L347.473 429.174L347.31 430.565L371.249 433.358L371.411 431.967Z" fill="#414042" stroke="#221b38" stroke-width="1"></path>
<path d="M362.644 426.43L348.043 424.726L347.881 426.117L362.482 427.821L362.644 426.43Z" fill="#414042" stroke="#221b38" stroke-width="1"></path>
<path d="M424.399 33.9591L421.536 58.4937L448.057 61.5882L450.92 37.0537L424.399 33.9591Z" fill="white" stroke="#221b38" stroke-miterlimit="10" stroke-width="1"></path>
<path d="M445.921 41.6916L428.141 39.6169L428.025 40.6102L445.805 42.6849L445.921 41.6916Z" fill="#414042" stroke="#221b38" stroke-width="1"></path>
<path d="M445.22 48.2997L427.439 46.2251L427.324 47.2184L445.104 49.293L445.22 48.2997Z" fill="#414042" stroke="#221b38" stroke-width="1"></path>
<path d="M444.419 54.8964L426.639 52.8218L426.523 53.8151L444.303 55.8897L444.419 54.8964Z" fill="#414042" stroke="#221b38" stroke-width="1"></path>
<path d="M437.842 50.7899L427.015 49.5266L426.899 50.5199L437.726 51.7832L437.842 50.7899Z" fill="#414042" stroke="#221b38" stroke-width="1"></path>
<path d="M563.356 99.9784L547.553 89.7944L537.369 105.598L553.172 115.782L563.356 99.9784Z" fill="none" stroke="#221b38" stroke-width="1"></path>
<path d="M76 363.05H60V379.05H76V363.05Z" fill="#8ADFFF" stroke="#221b38" stroke-width="1"></path>
<path d="M594.7 314.55C594.7 314.55 585.1 310.55 583.4 312.65C581.7 314.75 579.9 316.55 579.9 316.55C579.9 316.55 571.4 314.15 570.3 316.95C569.2 319.75 571.4 322.25 571.4 322.25C571.4 322.25 572.7 327.75 573.4 328.65C573.8 329.15 574 329.65 574.1 330.15C574.3 330.85 574.7 332.05 575.3 332.45C575.8 332.85 576.6 333.35 577.2 333.65C577.9 333.95 587.2 334.65 587.2 334.65C587.2 334.65 594.7 329.35 599.4 325.55L594.7 314.55Z" fill="#EFD8C3" stroke="#221b38" stroke-width="1"></path>
<path d="M495.3 296.95C494.9 297.05 494.6 297.25 494.3 297.45C492.5 298.85 485.7 304.25 488.9 304.35C491.3 304.35 492.8 304.25 494.9 304.05C497.9 303.85 500.7 302.85 503.1 301.05L505.4 300.335C505.4 300.335 502.6 295.25 495.3 296.95Z" fill="none" stroke="#221b38" stroke-width="1"></path>
<path d="M482.3 305.75C482.3 305.75 497.7 301.85 500.9 304.75C504.1 307.65 499.6 320.35 497.5 321.25C495.3 322.15 486.5 324.35 485 321.55C483.5 318.75 481.2 309.15 482.3 305.75Z" fill="none" stroke="#221b38" stroke-width="1"></path>
<path d="M299.8 97.35C299.8 112.05 237.7 112.45 237.7 97.75C237.7 83.05 250.5 70.75 268 70.75C285.5 70.75 299.8 82.65 299.8 97.35Z" stroke="#221b38" stroke-miterlimit="10" stroke-width="1"></path>
<path d="M249.1 90.05C249.1 75.35 311.2 74.95 311.2 89.65C311.2 104.35 298.4 116.65 280.9 116.65C263.4 116.65 249.1 104.75 249.1 90.05Z" stroke="#221b38" stroke-miterlimit="10" stroke-width="1"></path>
<path d="M86.4004 297.05C88.8857 297.05 90.9004 295.035 90.9004 292.55C90.9004 290.065 88.8857 288.05 86.4004 288.05C83.9151 288.05 81.9004 290.065 81.9004 292.55C81.9004 295.035 83.9151 297.05 86.4004 297.05Z" fill="none" stroke="#221b38" stroke-width="1"></path>
</svg>
